<svg width="16" height="14" viewBox="0 0 16 14" fill="none" xmlns="http://www.w3.org/2000/svg">
<path d="M14.3112 1.18005C14.7387 1.18005 15.0612 1.55505 14.8887 2.25255L12.7962 12.1151C12.65 12.8163 12.2262 12.9851 11.6412 12.6588L6.64997 8.97255C6.63062 8.95867 6.61485 8.94037 6.60397 8.91917C6.59309 8.89798 6.58742 8.8745 6.58742 8.85068C6.58742 8.82686 6.59309 8.80338 6.60397 8.78218C6.61485 8.76099 6.63062 8.74269 6.64997 8.7288L12.4137 3.5238C12.6762 3.2913 12.3575 3.1788 12.0125 3.3888L4.77872 7.95255C4.75678 7.96686 4.73187 7.97599 4.70589 7.97923C4.6799 7.98248 4.65351 7.97977 4.62872 7.9713L1.55747 7.00005C0.874972 6.8013 0.874972 6.33255 1.71122 5.9988L14 1.2588C14.0974 1.21205 14.2033 1.18527 14.3112 1.18005V1.18005Z" stroke="#715B4B" stroke-linecap="round" stroke-linejoin="round"/>
</svg>
